<svg width="1920" height="105" viewBox="0 0 1920 105" fill="none" xmlns="http://www.w3.org/2000/svg">
<rect width="1920" height="104.571" fill="#1C1A1A"/>
<path d="M1047.55 46.5455C1047.41 45.3939 1046.86 44.5 1045.89 43.8636C1044.92 43.2273 1043.73 42.9091 1042.32 42.9091C1041.29 42.9091 1040.39 43.0758 1039.61 43.4091C1038.85 43.7424 1038.25 44.2008 1037.82 44.7841C1037.39 45.3674 1037.18 46.0303 1037.18 46.7727C1037.18 47.3939 1037.33 47.928 1037.62 48.375C1037.93 48.8144 1038.31 49.1818 1038.78 49.4773C1039.25 49.7652 1039.75 50.0038 1040.26 50.1932C1040.78 50.375 1041.25 50.5227 1041.68 50.6364L1044.05 51.2727C1044.65 51.4318 1045.33 51.6515 1046.07 51.9318C1046.82 52.2121 1047.53 52.5947 1048.22 53.0795C1048.91 53.5568 1049.47 54.1705 1049.92 54.9205C1050.37 55.6705 1050.59 56.5909 1050.59 57.6818C1050.59 58.9394 1050.26 60.0758 1049.6 61.0909C1048.95 62.1061 1048 62.9129 1046.74 63.5114C1045.49 64.1098 1043.97 64.4091 1042.18 64.4091C1040.52 64.4091 1039.07 64.1402 1037.85 63.6023C1036.64 63.0644 1035.69 62.3144 1034.99 61.3523C1034.3 60.3902 1033.91 59.2727 1033.82 58H1036.73C1036.8 58.8788 1037.1 59.6061 1037.61 60.1818C1038.14 60.75 1038.8 61.1742 1039.59 61.4545C1040.39 61.7273 1041.26 61.8636 1042.18 61.8636C1043.26 61.8636 1044.22 61.6894 1045.08 61.3409C1045.94 60.9848 1046.61 60.4924 1047.11 59.8636C1047.61 59.2273 1047.86 58.4848 1047.86 57.6364C1047.86 56.8636 1047.65 56.2348 1047.22 55.75C1046.78 55.2652 1046.22 54.8712 1045.51 54.5682C1044.81 54.2652 1044.05 54 1043.23 53.7727L1040.36 52.9545C1038.55 52.4318 1037.11 51.6856 1036.05 50.7159C1034.98 49.7462 1034.45 48.4773 1034.45 46.9091C1034.45 45.6061 1034.81 44.4697 1035.51 43.5C1036.22 42.5227 1037.18 41.7652 1038.38 41.2273C1039.58 40.6818 1040.92 40.4091 1042.41 40.4091C1043.91 40.4091 1045.24 40.678 1046.41 41.2159C1047.58 41.7462 1048.5 42.4735 1049.18 43.3977C1049.87 44.322 1050.23 45.3712 1050.27 46.5455H1047.55ZM1070.5 40.7273H1073.32V56.1364C1073.32 57.7273 1072.94 59.1477 1072.19 60.3977C1071.45 61.6402 1070.4 62.6212 1069.04 63.3409C1067.69 64.053 1066.1 64.4091 1064.27 64.4091C1062.44 64.4091 1060.85 64.053 1059.5 63.3409C1058.14 62.6212 1057.09 61.6402 1056.34 60.3977C1055.6 59.1477 1055.22 57.7273 1055.22 56.1364V40.7273H1058.04V55.9091C1058.04 57.0455 1058.29 58.0568 1058.79 58.9432C1059.29 59.822 1060 60.5152 1060.93 61.0227C1061.86 61.5227 1062.97 61.7727 1064.27 61.7727C1065.57 61.7727 1066.68 61.5227 1067.61 61.0227C1068.54 60.5152 1069.25 59.822 1069.75 58.9432C1070.25 58.0568 1070.5 57.0455 1070.5 55.9091V40.7273ZM1078.94 64V40.7273H1086.81C1088.63 40.7273 1090.13 41.0568 1091.28 41.7159C1092.45 42.3674 1093.31 43.25 1093.88 44.3636C1094.44 45.4773 1094.72 46.7197 1094.72 48.0909C1094.72 49.4621 1094.44 50.7083 1093.88 51.8295C1093.32 52.9508 1092.47 53.8447 1091.31 54.5114C1090.15 55.1705 1088.66 55.5 1086.85 55.5H1081.22V53H1086.76C1088.01 53 1089.02 52.7841 1089.77 52.3523C1090.53 51.9205 1091.08 51.3371 1091.42 50.6023C1091.77 49.8598 1091.94 49.0227 1091.94 48.0909C1091.94 47.1591 1091.77 46.3258 1091.42 45.5909C1091.08 44.8561 1090.53 44.2803 1089.76 43.8636C1089 43.4394 1087.98 43.2273 1086.72 43.2273H1081.76V64H1078.94ZM1099.26 64V40.7273H1113.3V43.2273H1102.07V51.0909H1112.57V53.5909H1102.07V61.5H1113.48V64H1099.26ZM1118.38 64V40.7273H1126.24C1128.06 40.7273 1129.55 41.0379 1130.72 41.6591C1131.89 42.2727 1132.75 43.1174 1133.31 44.1932C1133.87 45.2689 1134.15 46.4924 1134.15 47.8636C1134.15 49.2348 1133.87 50.4508 1133.31 51.5114C1132.75 52.572 1131.89 53.4053 1130.73 54.0114C1129.57 54.6098 1128.09 54.9091 1126.29 54.9091H1119.93V52.3636H1126.2C1127.44 52.3636 1128.44 52.1818 1129.2 51.8182C1129.96 51.4545 1130.52 50.9394 1130.86 50.2727C1131.21 49.5985 1131.38 48.7955 1131.38 47.8636C1131.38 46.9318 1131.21 46.1174 1130.86 45.4205C1130.51 44.7235 1129.95 44.1856 1129.19 43.8068C1128.42 43.4205 1127.41 43.2273 1126.15 43.2273H1121.2V64H1118.38ZM1129.34 53.5455L1135.06 64H1131.79L1126.15 53.5455H1129.34ZM1166.58 48H1163.76C1163.59 47.1894 1163.3 46.4773 1162.88 45.8636C1162.47 45.25 1161.97 44.7348 1161.38 44.3182C1160.8 43.8939 1160.15 43.5758 1159.44 43.3636C1158.73 43.1515 1157.99 43.0455 1157.21 43.0455C1155.8 43.0455 1154.53 43.4015 1153.38 44.1136C1152.25 44.8258 1151.34 45.875 1150.67 47.2614C1150 48.6477 1149.67 50.3485 1149.67 52.3636C1149.67 54.3788 1150 56.0795 1150.67 57.4659C1151.34 58.8523 1152.25 59.9015 1153.38 60.6136C1154.53 61.3258 1155.8 61.6818 1157.21 61.6818C1157.99 61.6818 1158.73 61.5758 1159.44 61.3636C1160.15 61.1515 1160.8 60.8371 1161.38 60.4205C1161.97 59.9962 1162.47 59.4773 1162.88 58.8636C1163.3 58.2424 1163.59 57.5303 1163.76 56.7273H1166.58C1166.36 57.9167 1165.98 58.9811 1165.42 59.9205C1164.86 60.8598 1164.16 61.6591 1163.33 62.3182C1162.49 62.9697 1161.56 63.4659 1160.52 63.8068C1159.49 64.1477 1158.39 64.3182 1157.21 64.3182C1155.23 64.3182 1153.46 63.8333 1151.92 62.8636C1150.37 61.8939 1149.16 60.5152 1148.27 58.7273C1147.38 56.9394 1146.94 54.8182 1146.94 52.3636C1146.94 49.9091 1147.38 47.7879 1148.27 46C1149.16 44.2121 1150.37 42.8333 1151.92 41.8636C1153.46 40.8939 1155.23 40.4091 1157.21 40.4091C1158.39 40.4091 1159.49 40.5795 1160.52 40.9205C1161.56 41.2614 1162.49 41.7614 1163.33 42.4205C1164.16 43.072 1164.86 43.8674 1165.42 44.8068C1165.98 45.7386 1166.36 46.803 1166.58 48ZM1172.09 64H1169.13L1177.68 40.7273H1180.59L1189.13 64H1186.18L1179.22 44.4091H1179.04L1172.09 64ZM1173.18 54.9091H1185.09V57.4091H1173.18V54.9091ZM1205.48 46.5455C1205.35 45.3939 1204.79 44.5 1203.82 43.8636C1202.85 43.2273 1201.66 42.9091 1200.26 42.9091C1199.23 42.9091 1198.32 43.0758 1197.55 43.4091C1196.79 43.7424 1196.19 44.2008 1195.76 44.7841C1195.33 45.3674 1195.12 46.0303 1195.12 46.7727C1195.12 47.3939 1195.27 47.928 1195.56 48.375C1195.87 48.8144 1196.25 49.1818 1196.72 49.4773C1197.19 49.7652 1197.68 50.0038 1198.2 50.1932C1198.71 50.375 1199.19 50.5227 1199.62 50.6364L1201.98 51.2727C1202.59 51.4318 1203.26 51.6515 1204.01 51.9318C1204.76 52.2121 1205.47 52.5947 1206.15 53.0795C1206.84 53.5568 1207.41 54.1705 1207.86 54.9205C1208.3 55.6705 1208.53 56.5909 1208.53 57.6818C1208.53 58.9394 1208.2 60.0758 1207.54 61.0909C1206.89 62.1061 1205.93 62.9129 1204.68 63.5114C1203.43 64.1098 1201.91 64.4091 1200.12 64.4091C1198.45 64.4091 1197.01 64.1402 1195.79 63.6023C1194.58 63.0644 1193.62 62.3144 1192.93 61.3523C1192.24 60.3902 1191.85 59.2727 1191.76 58H1194.66C1194.74 58.8788 1195.04 59.6061 1195.55 60.1818C1196.07 60.75 1196.73 61.1742 1197.53 61.4545C1198.33 61.7273 1199.2 61.8636 1200.12 61.8636C1201.2 61.8636 1202.16 61.6894 1203.02 61.3409C1203.87 60.9848 1204.55 60.4924 1205.05 59.8636C1205.55 59.2273 1205.8 58.4848 1205.8 57.6364C1205.8 56.8636 1205.59 56.2348 1205.15 55.75C1204.72 55.2652 1204.15 54.8712 1203.45 54.5682C1202.74 54.2652 1201.98 54 1201.16 53.7727L1198.3 52.9545C1196.48 52.4318 1195.04 51.6856 1193.98 50.7159C1192.92 49.7462 1192.39 48.4773 1192.39 46.9091C1192.39 45.6061 1192.74 44.4697 1193.45 43.5C1194.16 42.5227 1195.12 41.7652 1196.31 41.2273C1197.52 40.6818 1198.86 40.4091 1200.35 40.4091C1201.85 40.4091 1203.18 40.678 1204.35 41.2159C1205.51 41.7462 1206.44 42.4735 1207.12 43.3977C1207.81 44.322 1208.17 45.3712 1208.21 46.5455H1205.48ZM1213.16 64V40.7273H1215.98V51.0909H1228.39V40.7273H1231.21V64H1228.39V53.5909H1215.98V64H1213.16ZM1236.85 64V40.7273H1244.99C1246.61 40.7273 1247.94 41.0076 1249 41.5682C1250.05 42.1212 1250.83 42.8674 1251.35 43.8068C1251.86 44.7386 1252.12 45.7727 1252.12 46.9091C1252.12 47.9091 1251.94 48.7348 1251.59 49.3864C1251.24 50.0379 1250.78 50.553 1250.2 50.9318C1249.63 51.3106 1249.02 51.5909 1248.35 51.7727V52C1249.06 52.0455 1249.78 52.2955 1250.5 52.75C1251.22 53.2045 1251.82 53.8561 1252.3 54.7045C1252.79 55.553 1253.03 56.5909 1253.03 57.8182C1253.03 58.9848 1252.77 60.0341 1252.24 60.9659C1251.71 61.8977 1250.87 62.6364 1249.72 63.1818C1248.58 63.7273 1247.09 64 1245.26 64H1236.85ZM1239.67 61.5H1245.26C1247.1 61.5 1248.41 61.1439 1249.18 60.4318C1249.96 59.7121 1250.35 58.8409 1250.35 57.8182C1250.35 57.0303 1250.15 56.303 1249.75 55.6364C1249.35 54.9621 1248.77 54.4242 1248.03 54.0227C1247.29 53.6136 1246.41 53.4091 1245.39 53.4091H1239.67V61.5ZM1239.67 50.9545H1244.89C1245.74 50.9545 1246.51 50.7879 1247.19 50.4545C1247.88 50.1212 1248.43 49.6515 1248.83 49.0455C1249.24 48.4394 1249.44 47.7273 1249.44 46.9091C1249.44 45.8864 1249.08 45.0189 1248.37 44.3068C1247.66 43.5871 1246.53 43.2273 1244.99 43.2273H1239.67V50.9545ZM1258.62 64H1255.66L1264.21 40.7273H1267.12L1275.66 64H1272.71L1265.75 44.4091H1265.57L1258.62 64ZM1259.71 54.9091H1271.62V57.4091H1259.71V54.9091ZM1296.92 48H1294.1C1293.94 47.1894 1293.64 46.4773 1293.23 45.8636C1292.82 45.25 1292.32 44.7348 1291.73 44.3182C1291.14 43.8939 1290.5 43.5758 1289.78 43.3636C1289.07 43.1515 1288.33 43.0455 1287.56 43.0455C1286.15 43.0455 1284.87 43.4015 1283.73 44.1136C1282.59 44.8258 1281.69 45.875 1281.01 47.2614C1280.34 48.6477 1280.01 50.3485 1280.01 52.3636C1280.01 54.3788 1280.34 56.0795 1281.01 57.4659C1281.69 58.8523 1282.59 59.9015 1283.73 60.6136C1284.87 61.3258 1286.15 61.6818 1287.56 61.6818C1288.33 61.6818 1289.07 61.5758 1289.78 61.3636C1290.5 61.1515 1291.14 60.8371 1291.73 60.4205C1292.32 59.9962 1292.82 59.4773 1293.23 58.8636C1293.64 58.2424 1293.94 57.5303 1294.1 56.7273H1296.92C1296.71 57.9167 1296.32 58.9811 1295.76 59.9205C1295.2 60.8598 1294.5 61.6591 1293.67 62.3182C1292.84 62.9697 1291.9 63.4659 1290.86 63.8068C1289.83 64.1477 1288.73 64.3182 1287.56 64.3182C1285.57 64.3182 1283.81 63.8333 1282.26 62.8636C1280.72 61.8939 1279.5 60.5152 1278.61 58.7273C1277.73 56.9394 1277.28 54.8182 1277.28 52.3636C1277.28 49.9091 1277.73 47.7879 1278.61 46C1279.5 44.2121 1280.72 42.8333 1282.26 41.8636C1283.81 40.8939 1285.57 40.4091 1287.56 40.4091C1288.73 40.4091 1289.83 40.5795 1290.86 40.9205C1291.9 41.2614 1292.84 41.7614 1293.67 42.4205C1294.5 43.072 1295.2 43.8674 1295.76 44.8068C1296.32 45.7386 1296.71 46.803 1296.92 48ZM1301.47 64V40.7273H1304.29V52.2727H1304.57L1315.02 40.7273H1318.7L1308.93 51.2273L1318.7 64H1315.29L1307.2 53.1818L1304.29 56.4545V64H1301.47ZM1332.3 64H1329.35L1337.89 40.7273H1340.8L1349.35 64H1346.39L1339.44 44.4091H1339.26L1332.3 64ZM1333.39 54.9091H1345.3V57.4091H1333.39V54.9091ZM1352.97 64V40.7273H1360.84C1362.66 40.7273 1364.16 41.0568 1365.32 41.7159C1366.48 42.3674 1367.35 43.25 1367.91 44.3636C1368.47 45.4773 1368.75 46.7197 1368.75 48.0909C1368.75 49.4621 1368.47 50.7083 1367.91 51.8295C1367.35 52.9508 1366.5 53.8447 1365.34 54.5114C1364.18 55.1705 1362.69 55.5 1360.88 55.5H1355.25V53H1360.79C1362.04 53 1363.05 52.7841 1363.8 52.3523C1364.56 51.9205 1365.11 51.3371 1365.45 50.6023C1365.8 49.8598 1365.97 49.0227 1365.97 48.0909C1365.97 47.1591 1365.8 46.3258 1365.45 45.5909C1365.11 44.8561 1364.56 44.2803 1363.79 43.8636C1363.03 43.4394 1362.01 43.2273 1360.75 43.2273H1355.79V64H1352.97ZM1373.29 64V40.7273H1381.15C1382.97 40.7273 1384.46 41.0379 1385.63 41.6591C1386.79 42.2727 1387.66 43.1174 1388.22 44.1932C1388.78 45.2689 1389.06 46.4924 1389.06 47.8636C1389.06 49.2348 1388.78 50.4508 1388.22 51.5114C1387.66 52.572 1386.8 53.4053 1385.64 54.0114C1384.48 54.6098 1383 54.9091 1381.2 54.9091H1374.83V52.3636H1381.11C1382.35 52.3636 1383.35 52.1818 1384.11 51.8182C1384.87 51.4545 1385.42 50.9394 1385.76 50.2727C1386.11 49.5985 1386.29 48.7955 1386.29 47.8636C1386.29 46.9318 1386.11 46.1174 1385.76 45.4205C1385.42 44.7235 1384.86 44.1856 1384.09 43.8068C1383.33 43.4205 1382.32 43.2273 1381.06 43.2273H1376.11V64H1373.29ZM1384.24 53.5455L1389.97 64H1386.7L1381.06 53.5455H1384.24ZM1413.39 52.3636C1413.39 54.8182 1412.95 56.9394 1412.06 58.7273C1411.18 60.5152 1409.96 61.8939 1408.41 62.8636C1406.87 63.8333 1405.1 64.3182 1403.12 64.3182C1401.13 64.3182 1399.37 63.8333 1397.82 62.8636C1396.28 61.8939 1395.06 60.5152 1394.18 58.7273C1393.29 56.9394 1392.85 54.8182 1392.85 52.3636C1392.85 49.9091 1393.29 47.7879 1394.18 46C1395.06 44.2121 1396.28 42.8333 1397.82 41.8636C1399.37 40.8939 1401.13 40.4091 1403.12 40.4091C1405.1 40.4091 1406.87 40.8939 1408.41 41.8636C1409.96 42.8333 1411.18 44.2121 1412.06 46C1412.95 47.7879 1413.39 49.9091 1413.39 52.3636ZM1410.66 52.3636C1410.66 50.3485 1410.33 48.6477 1409.65 47.2614C1408.99 45.875 1408.08 44.8258 1406.94 44.1136C1405.8 43.4015 1404.53 43.0455 1403.12 43.0455C1401.71 43.0455 1400.43 43.4015 1399.29 44.1136C1398.15 44.8258 1397.25 45.875 1396.57 47.2614C1395.91 48.6477 1395.57 50.3485 1395.57 52.3636C1395.57 54.3788 1395.91 56.0795 1396.57 57.4659C1397.25 58.8523 1398.15 59.9015 1399.29 60.6136C1400.43 61.3258 1401.71 61.6818 1403.12 61.6818C1404.53 61.6818 1405.8 61.3258 1406.94 60.6136C1408.08 59.9015 1408.99 58.8523 1409.65 57.4659C1410.33 56.0795 1410.66 54.3788 1410.66 52.3636ZM1417.99 40.7273L1424.9 60.3182H1425.17L1432.08 40.7273H1435.04L1426.49 64H1423.58L1415.04 40.7273H1417.99ZM1438.66 64V40.7273H1452.71V43.2273H1441.48V51.0909H1451.98V53.5909H1441.48V61.5H1452.89V64H1438.66ZM1460.61 40.7273V64H1457.79V40.7273H1460.61ZM1464.98 43.2273V40.7273H1482.44V43.2273H1475.12V64H1472.3V43.2273H1464.98ZM1486.79 64V40.7273H1500.83V43.2273H1489.61V51.0909H1500.11V53.5909H1489.61V61.5H1501.01V64H1486.79ZM1509.09 40.7273L1508.87 57.4545H1506.23L1506 40.7273H1509.09ZM1507.55 64.1818C1506.99 64.1818 1506.51 63.9811 1506.11 63.5795C1505.7 63.178 1505.5 62.697 1505.5 62.1364C1505.5 61.5758 1505.7 61.0947 1506.11 60.6932C1506.51 60.2917 1506.99 60.0909 1507.55 60.0909C1508.11 60.0909 1508.59 60.2917 1508.99 60.6932C1509.39 61.0947 1509.59 61.5758 1509.59 62.1364C1509.59 62.5076 1509.5 62.8485 1509.31 63.1591C1509.13 63.4697 1508.88 63.7197 1508.57 63.9091C1508.27 64.0909 1507.93 64.1818 1507.55 64.1818Z" fill="white"/>
<path d="M519.818 64V40.7273H527.682C529.508 40.7273 531 41.0568 532.159 41.7159C533.326 42.3674 534.189 43.25 534.75 44.3636C535.311 45.4773 535.591 46.7197 535.591 48.0909C535.591 49.4621 535.311 50.7083 534.75 51.8295C534.197 52.9508 533.341 53.8447 532.182 54.5114C531.023 55.1705 529.538 55.5 527.727 55.5H522.091V53H527.636C528.886 53 529.89 52.7841 530.648 52.3523C531.405 51.9205 531.955 51.3371 532.295 50.6023C532.644 49.8598 532.818 49.0227 532.818 48.0909C532.818 47.1591 532.644 46.3258 532.295 45.5909C531.955 44.8561 531.402 44.2803 530.636 43.8636C529.871 43.4394 528.856 43.2273 527.591 43.2273H522.636V64H519.818ZM538.71 64H535.756L544.301 40.7273H547.21L555.756 64H552.801L545.847 44.4091H545.665L538.71 64ZM539.801 54.9091H551.71V57.4091H539.801V54.9091ZM574.196 48C573.946 47.2348 573.616 46.5492 573.207 45.9432C572.806 45.3295 572.325 44.8068 571.764 44.375C571.211 43.9432 570.582 43.6136 569.878 43.3864C569.173 43.1591 568.401 43.0455 567.56 43.0455C566.181 43.0455 564.927 43.4015 563.798 44.1136C562.67 44.8258 561.772 45.875 561.105 47.2614C560.438 48.6477 560.105 50.3485 560.105 52.3636C560.105 54.3788 560.442 56.0795 561.116 57.4659C561.791 58.8523 562.704 59.9015 563.855 60.6136C565.007 61.3258 566.302 61.6818 567.741 61.6818C569.075 61.6818 570.249 61.3977 571.264 60.8295C572.287 60.2538 573.082 59.4432 573.651 58.3977C574.226 57.3447 574.514 56.1061 574.514 54.6818L575.378 54.8636H568.378V52.3636H577.241V54.8636C577.241 56.7803 576.832 58.447 576.014 59.8636C575.204 61.2803 574.082 62.3788 572.651 63.1591C571.226 63.9318 569.59 64.3182 567.741 64.3182C565.681 64.3182 563.87 63.8333 562.31 62.8636C560.757 61.8939 559.545 60.5152 558.673 58.7273C557.81 56.9394 557.378 54.8182 557.378 52.3636C557.378 50.5227 557.624 48.8674 558.116 47.3977C558.616 45.9205 559.321 44.6629 560.23 43.625C561.139 42.5871 562.215 41.7917 563.457 41.2386C564.7 40.6856 566.067 40.4091 567.56 40.4091C568.787 40.4091 569.931 40.5947 570.991 40.9659C572.06 41.3295 573.01 41.8485 573.844 42.5227C574.685 43.1894 575.385 43.9886 575.946 44.9205C576.507 45.8447 576.893 46.8712 577.105 48H574.196ZM597.341 40.7273H600.159V56.1364C600.159 57.7273 599.784 59.1477 599.034 60.3977C598.292 61.6402 597.242 62.6212 595.886 63.3409C594.53 64.053 592.939 64.4091 591.114 64.4091C589.288 64.4091 587.697 64.053 586.341 63.3409C584.985 62.6212 583.932 61.6402 583.182 60.3977C582.439 59.1477 582.068 57.7273 582.068 56.1364V40.7273H584.886V55.9091C584.886 57.0455 585.136 58.0568 585.636 58.9432C586.136 59.822 586.848 60.5152 587.773 61.0227C588.705 61.5227 589.818 61.7727 591.114 61.7727C592.409 61.7727 593.523 61.5227 594.455 61.0227C595.386 60.5152 596.098 59.822 596.591 58.9432C597.091 58.0568 597.341 57.0455 597.341 55.9091V40.7273ZM605.787 64V40.7273H619.832V43.2273H608.605V51.0909H619.105V53.5909H608.605V61.5H620.014V64H605.787ZM652.639 48H649.821C649.654 47.1894 649.363 46.4773 648.946 45.8636C648.537 45.25 648.037 44.7348 647.446 44.3182C646.863 43.8939 646.215 43.5758 645.503 43.3636C644.791 43.1515 644.048 43.0455 643.276 43.0455C641.866 43.0455 640.59 43.4015 639.446 44.1136C638.31 44.8258 637.404 45.875 636.73 47.2614C636.063 48.6477 635.73 50.3485 635.73 52.3636C635.73 54.3788 636.063 56.0795 636.73 57.4659C637.404 58.8523 638.31 59.9015 639.446 60.6136C640.59 61.3258 641.866 61.6818 643.276 61.6818C644.048 61.6818 644.791 61.5758 645.503 61.3636C646.215 61.1515 646.863 60.8371 647.446 60.4205C648.037 59.9962 648.537 59.4773 648.946 58.8636C649.363 58.2424 649.654 57.5303 649.821 56.7273H652.639C652.427 57.9167 652.041 58.9811 651.48 59.9205C650.92 60.8598 650.223 61.6591 649.389 62.3182C648.556 62.9697 647.62 63.4659 646.582 63.8068C645.552 64.1477 644.45 64.3182 643.276 64.3182C641.291 64.3182 639.526 63.8333 637.98 62.8636C636.435 61.8939 635.219 60.5152 634.332 58.7273C633.446 56.9394 633.003 54.8182 633.003 52.3636C633.003 49.9091 633.446 47.7879 634.332 46C635.219 44.2121 636.435 42.8333 637.98 41.8636C639.526 40.8939 641.291 40.4091 643.276 40.4091C644.45 40.4091 645.552 40.5795 646.582 40.9205C647.62 41.2614 648.556 41.7614 649.389 42.4205C650.223 43.072 650.92 43.8674 651.48 44.8068C652.041 45.7386 652.427 46.803 652.639 48ZM676.83 52.3636C676.83 54.8182 676.386 56.9394 675.5 58.7273C674.614 60.5152 673.398 61.8939 671.852 62.8636C670.307 63.8333 668.542 64.3182 666.557 64.3182C664.572 64.3182 662.807 63.8333 661.261 62.8636C659.716 61.8939 658.5 60.5152 657.614 58.7273C656.727 56.9394 656.284 54.8182 656.284 52.3636C656.284 49.9091 656.727 47.7879 657.614 46C658.5 44.2121 659.716 42.8333 661.261 41.8636C662.807 40.8939 664.572 40.4091 666.557 40.4091C668.542 40.4091 670.307 40.8939 671.852 41.8636C673.398 42.8333 674.614 44.2121 675.5 46C676.386 47.7879 676.83 49.9091 676.83 52.3636ZM674.102 52.3636C674.102 50.3485 673.765 48.6477 673.091 47.2614C672.424 45.875 671.519 44.8258 670.375 44.1136C669.239 43.4015 667.966 43.0455 666.557 43.0455C665.148 43.0455 663.871 43.4015 662.727 44.1136C661.591 44.8258 660.686 45.875 660.011 47.2614C659.345 48.6477 659.011 50.3485 659.011 52.3636C659.011 54.3788 659.345 56.0795 660.011 57.4659C660.686 58.8523 661.591 59.9015 662.727 60.6136C663.871 61.3258 665.148 61.6818 666.557 61.6818C667.966 61.6818 669.239 61.3258 670.375 60.6136C671.519 59.9015 672.424 58.8523 673.091 57.4659C673.765 56.0795 674.102 54.3788 674.102 52.3636ZM681.568 40.7273H684.932L692.841 60.0455H693.114L701.023 40.7273H704.386V64H701.75V46.3182H701.523L694.25 64H691.705L684.432 46.3182H684.205V64H681.568V40.7273ZM719.991 64H717.037L725.582 40.7273H728.491L737.037 64H734.082L727.128 44.4091H726.946L719.991 64ZM721.082 54.9091H732.991V57.4091H721.082V54.9091ZM740.662 40.7273H744.026L751.935 60.0455H752.207L760.116 40.7273H763.48V64H760.844V46.3182H760.616L753.344 64H750.798L743.526 46.3182H743.298V64H740.662V40.7273ZM769.131 64V40.7273H783.176V43.2273H771.949V51.0909H782.449V53.5909H771.949V61.5H783.358V64H769.131Z" fill="white"/>
</svg>
